<svg xmlns="http://www.w3.org/2000/svg" xmlns:xlink="http://www.w3.org/1999/xlink" width="151" height="37" viewBox="0 0 151 37"><defs><clipPath id="a"><rect width="39" height="37" fill="#fff" stroke="#707070" stroke-width="1"/></clipPath></defs><g transform="translate(-257 -328)"><g transform="translate(257 328)" clip-path="url(#a)"><g transform="translate(0 4.082)"><path d="M53.608,75.926a1.172,1.172,0,0,1-2.34,0V50.336a1.12,1.12,0,0,1,.845-1.066,1.2,1.2,0,0,1,1.314.473L69.933,71.135a12.949,12.949,0,0,0,8.748,4.511,13.209,13.209,0,0,0,9.5-2.833,1.211,1.211,0,0,1,1.645.122A1.069,1.069,0,0,1,89.7,74.5a15.629,15.629,0,0,1-11.245,3.355A15.319,15.319,0,0,1,68.1,72.5L53.608,53.727ZM67.56,60.556a1.173,1.173,0,0,1-1.421.794A1.1,1.1,0,0,1,65.3,60a14.664,14.664,0,0,1,9.954-10.03A15.728,15.728,0,0,1,89.519,52.55a1.071,1.071,0,0,1,.155,1.561,1.212,1.212,0,0,1-1.645.147A13.3,13.3,0,0,0,75.975,52.08,12.4,12.4,0,0,0,67.56,60.556Z" transform="translate(-51.268 -49.226)" fill="#fff"/></g></g><text transform="translate(302 355)" fill="#fff" font-size="22" font-family="OpenSans-Regular, Open Sans" letter-spacing="0.038em"><tspan x="0" y="0">DECISION</tspan></text></g></svg>