<svg xmlns="http://www.w3.org/2000/svg" width="151" height="37"><defs><clipPath id="a"><path fill="#fff" stroke="#707070" d="M0 0h39v37H0z"/></clipPath></defs><g clip-path="url(#a)"><path d="M2.34 30.782a1.172 1.172 0 0 1-2.34 0V5.192a1.12 1.12 0 0 1 .845-1.066 1.2 1.2 0 0 1 1.314.473l16.506 21.392a12.949 12.949 0 0 0 8.748 4.511 13.209 13.209 0 0 0 9.5-2.833 1.211 1.211 0 0 1 1.645.122 1.069 1.069 0 0 1-.126 1.565 15.629 15.629 0 0 1-11.245 3.355 15.319 15.319 0 0 1-10.355-5.355L2.34 8.583Zm13.952-15.37a1.173 1.173 0 0 1-1.421.794 1.1 1.1 0 0 1-.839-1.35 14.664 14.664 0 0 1 9.954-10.03 15.728 15.728 0 0 1 14.265 2.58 1.071 1.071 0 0 1 .155 1.561 1.212 1.212 0 0 1-1.645.147 13.3 13.3 0 0 0-12.054-2.178 12.4 12.4 0 0 0-8.415 8.476Z" fill="#fff"/></g><text transform="translate(45 27)" fill="#fff" font-size="22" font-family="OpenSans-Regular, Open Sans" letter-spacing=".038em"><tspan x="0" y="0">DECISION</tspan></text></svg>